<svg width="58" height="58" viewBox="0 0 58 58" fill="none" xmlns="http://www.w3.org/2000/svg">
<rect width="58" height="58" rx="29" fill="#272727"/>
<path d="M29 19.1458C29.3797 19.1458 29.6875 19.4536 29.6875 19.8333V20.7499C29.6875 21.1296 29.3797 21.4374 29 21.4374C28.6203 21.4374 28.3125 21.1296 28.3125 20.7499V19.8333C28.3125 19.4536 28.6203 19.1458 29 19.1458Z" fill="white"/>
<path d="M29 23.7291C26.089 23.7291 23.7291 26.0889 23.7291 28.9999C23.7291 31.9109 26.089 34.2708 29 34.2708C31.911 34.2708 34.2708 31.9109 34.2708 28.9999C34.2708 26.0889 31.911 23.7291 29 23.7291Z" fill="white"/>
<path d="M23.0043 22.032C22.7358 21.7635 22.3005 21.7635 22.032 22.032C21.7636 22.3005 21.7636 22.7358 22.032 23.0043L22.6802 23.6524C22.9487 23.9209 23.384 23.9209 23.6525 23.6524C23.921 23.384 23.921 22.9487 23.6525 22.6802L23.0043 22.032Z" fill="white"/>
<path d="M38.8541 28.9999C38.8541 29.3796 38.5463 29.6874 38.1666 29.6874H37.25C36.8703 29.6874 36.5625 29.3796 36.5625 28.9999C36.5625 28.6202 36.8703 28.3124 37.25 28.3124H38.1666C38.5463 28.3124 38.8541 28.6202 38.8541 28.9999Z" fill="white"/>
<path d="M35.9679 23.0043C36.2364 22.7358 36.2364 22.3005 35.9679 22.032C35.6994 21.7635 35.2641 21.7635 34.9956 22.032L34.3475 22.6802C34.079 22.9487 34.079 23.384 34.3475 23.6524C34.6159 23.9209 35.0512 23.9209 35.3197 23.6524L35.9679 23.0043Z" fill="white"/>
<path d="M29 36.5624C29.3797 36.5624 29.6875 36.8702 29.6875 37.2499V38.1666C29.6875 38.5463 29.3797 38.8541 29 38.8541C28.6203 38.8541 28.3125 38.5463 28.3125 38.1666V37.2499C28.3125 36.8702 28.6203 36.5624 29 36.5624Z" fill="white"/>
<path d="M35.3198 34.3474C35.0513 34.0789 34.616 34.0789 34.3475 34.3474C34.079 34.6159 34.079 35.0512 34.3475 35.3197L34.9957 35.9679C35.2642 36.2363 35.6995 36.2363 35.968 35.9679C36.2365 35.6994 36.2365 35.2641 35.968 34.9956L35.3198 34.3474Z" fill="white"/>
<path d="M21.4375 28.9999C21.4375 29.3796 21.1297 29.6874 20.75 29.6874H19.8333C19.4536 29.6874 19.1458 29.3796 19.1458 28.9999C19.1458 28.6202 19.4536 28.3124 19.8333 28.3124H20.75C21.1297 28.3124 21.4375 28.6202 21.4375 28.9999Z" fill="white"/>
<path d="M23.6524 35.3197C23.9209 35.0512 23.9209 34.6159 23.6524 34.3474C23.384 34.0789 22.9486 34.0789 22.6802 34.3474L22.032 34.9956C21.7635 35.2641 21.7635 35.6994 22.032 35.9679C22.3005 36.2363 22.7358 36.2363 23.0043 35.9679L23.6524 35.3197Z" fill="white"/>
</svg>
