<svg width="84" height="36" viewBox="0 0 84 36" fill="none" xmlns="http://www.w3.org/2000/svg">
<rect width="36" height="36" rx="18" transform="matrix(-1 0 0 1 36 0)" fill="white"/>
<path fill-rule="evenodd" clip-rule="evenodd" d="M19.6919 14.2247C19.4479 13.9806 19.0521 13.9806 18.8081 14.2247L15.4747 17.5581C15.2306 17.8021 15.2306 18.1979 15.4747 18.4419L18.8081 21.7753C19.0521 22.0194 19.4479 22.0194 19.6919 21.7753C19.936 21.5312 19.936 21.1355 19.6919 20.8914L16.8006 18L19.6919 15.1086C19.936 14.8645 19.936 14.4688 19.6919 14.2247Z" fill="#555555"/>
<rect x="48" width="36" height="36" rx="18" fill="white"/>
<path fill-rule="evenodd" clip-rule="evenodd" d="M64.3081 14.2247C64.5521 13.9806 64.9479 13.9806 65.1919 14.2247L68.5253 17.5581C68.7694 17.8021 68.7694 18.1979 68.5253 18.4419L65.1919 21.7753C64.9479 22.0194 64.5521 22.0194 64.3081 21.7753C64.064 21.5312 64.064 21.1355 64.3081 20.8914L67.1994 18L64.3081 15.1086C64.064 14.8645 64.064 14.4688 64.3081 14.2247Z" fill="#555555"/>
</svg>
